<svg version="1.0" xmlns="http://www.w3.org/2000/svg" width="150" height="50" viewBox="0 0 150 50" fill="none"><path d="M811 95.4c0 52.1.2 94.6.4 94.6s1.6-2.1 3.1-4.6c3.7-6.3 16.6-19.6 24-24.9 7.4-5.3 17.9-10.5 26.8-13.4l6.7-2.3V59.4l-30.5-29.3L811 .9v94.5zM635 207v98.1l6.3-7.8c9-11 20.9-20.4 34.2-26.8 17.6-8.6 36.8-12.4 54.3-10.7l8.3.8 28.4-22 28.5-22.1V109H635v98zM547 223.8V299h60V206.3l-19.2-18.4a7038.9 7038.9 0 01-30-28.8L547 148.7v75.1z"/><path d="M878.8 155.6c-29.9 5.4-54.1 26.5-64.2 56.1l-2.1 6.1-35.5 27.5-35.5 27.6-5.5-.7c-11-1.4-28-.6-37 1.8-37.7 9.8-64.4 40.4-69.1 79.2-1.9 15.8 1.4 35.5 8.3 49.5l3.4 6.8-30.1 86.8c-19.5 56.5-30.4 86.6-31.2 86.5-.7-.2-39.5-19.7-86.3-43.3-73.9-37.4-85.1-43.3-85.6-45.5-7.2-31.7-26.5-56.9-54.4-71-61.1-30.8-134.7 6.3-146.5 73.9-2.8 16.1-1.3 35.3 4 50.6l2.5 7-17.5 30.5c-9.7 16.8-32.9 57.3-51.8 90l-34.2 59.5-4 .2c-13.9.9-30.7 5.3-42.7 11.4-69.2 34.9-84.1 126-29.4 180.5 16.4 16.3 33.8 25.9 56.9 31.1 10.9 2.5 34.6 2.2 46.3-.4 42.5-9.8 74.2-40.5 85.6-83.1 2.6-9.9 3.6-33.9 1.8-45-1.1-6.9-4.6-19-8.1-27.8-1.2-3.1-.3-4.7 51.2-94.3 38.6-67.3 52.9-91.3 54.4-91.6 8.8-1.7 20.4-4.9 25.1-7l5.7-2.5 88.5 44.7c71.9 36.4 88.6 45.3 89.5 47.3.5 1.4 2.5 5.7 4.3 9.7 10.6 23.3 31.5 41.2 56.4 48.3 9.6 2.8 28.1 3.7 38.6 2.1 32.2-5.3 59.3-28 69.8-58.8 3.8-11.2 4.9-19.8 4.3-33.4-.5-12.3-2.1-19.7-7.3-32.9l-1.7-4.6 29.8-85.9c16.4-47.3 30.4-87.9 31.2-90.2 1.3-3.7 2.3-4.6 10.1-9 5.5-3.1 11.7-7.8 17.4-13.2 14.3-13.6 21.9-26.8 26.8-46.6l2.7-11 34.1-26.5 34.1-26.5 13.8-.1c12.6-.1 14.6-.3 23.3-3.2 27.3-9 47.7-30.8 55.1-58.8 2.8-10.5 3-26.9.5-37.7-10-44-51.9-72.1-95.8-64.1zm24.4 7c26.6 7.9 44.2 32.6 42.5 59.9-.9 15.4-6.5 27.5-17.6 38.5-14 13.8-34 19.7-53.1 15.7l-5.5-1.2-43 33.3-43 33.3-.6 7.2c-.9 9.6-2.5 15.8-6.4 24.2-6.9 15.1-17.3 25.5-32.5 32.7-4.7 2.2-9.1 4.3-9.9 4.7-.8.4-17.1 46.1-36.4 101.5l-34.9 100.8 4.6 9.1c13.1 26.5 8.5 55-12.3 75.7-27.4 27.3-71.1 24.7-95.8-5.5-5.2-6.3-10.9-18.2-12.5-25.6l-1.1-5.6-99.6-50.4-99.5-50.4-9.6 4.8c-10.6 5.3-18.1 7.4-29.6 8.5l-7.7.7-59.2 103-59.2 102.9 2.7 4.6c9.2 15.6 13.4 36.6 11.1 54.6-6 45.2-42.5 77.4-87.7 77.4-17.1 0-31.7-4.1-47.2-13.2-8.6-5-23.8-20.8-29.1-30.1C-2.6 814 39 741.4 107.4 740.6l10.8-.1L176.6 639c32.1-55.8 58.2-102 58-102.5-.3-.6-2.1-4.6-4-9-5.2-11.8-7-21.7-6.3-35 .7-12.6 2.5-20.1 7.2-30 9.5-20 28.1-35.4 50.1-41.7 10.3-2.9 29.5-3.1 39.3-.4 24.3 6.7 44 24 53.1 46.8 1.5 4 3.4 10.2 4 13.8.7 3.6 1.5 8 1.9 9.9.6 3.3 1.2 3.6 99.9 53.6l99.3 50.3 6.6-2.8 6.6-2.8 34.9-100.4c29.7-85.7 34.6-100.6 33.6-102.3-.7-1.1-2.7-4.5-4.5-7.5-5.8-9.5-8.6-19.9-8.7-32.5-.1-13.3 1.2-19.1 7.1-31.4 8.1-17 24.6-30.6 43.3-35.7 9.3-2.6 27.4-2.4 35.7.3l6.1 2 44.3-34.3 44.3-34.2 1.7-7.1c2.6-11.1 7.3-19.5 16-28.2 8.3-8.4 17.9-13.8 27.9-15.8 3-.6 6.4-1.3 7.5-1.5 3.4-.8 16.1.4 21.7 2z"/><path d="M871.9 178.9c-15 4.8-25.4 17.9-26.8 33.5l-.6 7.4-52.9 41-52.9 41-3.1-1.9c-5.6-3.5-15.4-5.9-23.5-5.9-13.8 0-25.1 4.7-34.6 14.4-14.7 15-18.2 36.5-9 55.2 1.9 3.9 5.5 9.2 8 11.9l4.5 4.9-38.8 111.8C606.9 594.1 603.3 604 601.3 604c-3.9 0-14.2 3.7-19.3 7l-4.9 3.2L467 558.5l-110-55.7v-8.7c0-16.4-5.7-30.7-16.8-41.9-11.4-11.5-25.2-17.2-41.7-17.2-4.8 0-11.5.7-14.9 1.6-24 6.2-41.8 27.9-43.3 52.9-.9 13.5 2.5 25.5 10.3 37.1l4.3 6.6-65 113.1c-35.8 62.3-65.2 113.3-65.3 113.4 0 0-3.5-.6-7.6-1.4-15.4-3-33.9.2-48 8.4-8.3 4.9-19.4 16-24.3 24.3-6.4 11-9 20.6-9.1 34-.1 13.7 1.1 19.4 6.9 31.5 7.7 16.1 21.8 28.6 39.4 34.9 8 2.9 9.6 3.1 22.1 3.1 11.5 0 14.5-.3 20.5-2.3 19-6.4 32.7-18.1 41.5-35.4 5.5-11.1 7.4-20.5 6.7-34.2-.8-15.8-5.3-28.1-14.4-39.3l-3.4-4.3 65.4-113.7 65.5-113.8 8.3.3c15.1.6 31.5-4.6 41.6-13.2 2.2-2 4.5-3.6 5-3.6.4 0 50.1 25 110.3 55.4l109.5 55.5.7 6.3c2 17.1 11.1 30.7 25.2 37.7 30.2 14.9 65.6-6.8 65.6-40.3 0-11.5-4.8-24.3-11.4-30.5-1.4-1.4-2.6-3.2-2.6-4 0-1.1 72.8-212.4 76.7-222.8.2-.6 3.5-1.8 7.3-2.7 9.2-2 16.2-5.7 22.6-11.8 11.2-10.5 15.6-21.3 15.3-37.1l-.2-10 51.9-40.1 51.8-40.2 5.5 2.2c19.7 7.8 40.5 0 50.4-19 3-5.8 3.2-6.7 3.2-17.1 0-9.3-.3-11.8-2.3-15.9-8.5-18.5-29.2-27.8-48.3-21.7zm19.9 1.6c11.4 3.4 20.1 14.4 21 26.5l.4 5.7-4.3.6c-16.6 2.4-54.3 5.7-55 5-1.7-1.7-2.2-10.9-.9-16.2 4-16.9 21.6-26.7 38.8-21.6zM717.1 297c11.6 2.2 22.7 10.7 27.1 20.8 1.8 4 3.8 18.1 2.7 18.3-11.5 1.8-70.7 7.4-71.4 6.7-.5-.5-1-5-1-10.1.1-8 .5-10 2.8-14.9 5.2-10.6 14.3-17.9 25.7-20.4 7.1-1.6 7.7-1.6 14.1-.4zm-413 145c20.7 3.9 36.9 22.8 36.9 43.1 0 3.2-.1 5.9-.2 6-2.3.8-88.5 9.4-89.1 8.9-1.4-1.2-2.3-13.2-1.5-19.8 1.6-13.8 12.1-28.2 25.1-34.3 10-4.6 18.6-5.8 28.8-3.9zm316.4 170.5c10.8 5.2 18.5 16.3 19.3 27.6l.4 5.7-3.8.6c-2.2.3-17.1 2-33.3 3.7-21.7 2.3-29.6 2.8-30.4 2-.7-.7-1.2-4.5-1.2-8.9.1-6.1.6-8.8 2.6-13.2 4.5-9.8 11.8-16.2 22.2-19.6 6.4-2.1 17.7-1.1 24.2 2.1zm-504 150c8.9 2.4 17.3 7.3 24.6 14.6 7.6 7.5 12.2 15.9 14.4 26.4 1.3 6 2 16.3 1.3 16.6-.2 0-23.9 2.7-52.8 5.8l-52.5 5.7-1.3-2.9c-.7-1.6-1.5-6.3-1.8-10.5-1.9-24.8 15.5-49.1 39.7-55.6 7.2-1.9 21.1-2 28.4-.1z"/><path d="M849 359.6c-12.4 9.6-23.1 18.1-23.8 18.8-.7.7-2.1 4.9-3.2 9.3-1 4.4-3.8 12.3-6.2 17.4l-4.3 9.4-.3 218.2L811 851h61V596.5c0-140-.1-254.5-.2-254.5-.2.1-10.4 7.9-22.8 17.6zM788 442.6c-3.6 3.1-9.6 7.4-13.5 9.8l-7 4.2-29.8 85.9-29.8 85.9 2.1 5.1c6.1 14.6 8.5 36.9 5.6 53.3-3.7 21-12.7 38.2-28.1 53.8-14.1 14.1-28.5 22.6-45.7 27l-6.8 1.6V960h160V698.5c0-143.8-.1-261.5-.2-261.4-.2 0-3.2 2.5-6.8 5.5zM2194 477.7c-8.5.8-24 3.7-30 5.5-17 5.2-31.1 16-37 28.2-5.4 11.4-5.5 12.7-5.5 69.6 0 59.1.1 60.5 7.5 71.8 8.3 12.8 20.9 20.7 41 25.6 14.7 3.6 24.7 4.6 45 4.6 19.2 0 29.5-.9 50.3-4.1l13.7-2.1v-17.9c0-9.9-.3-17.9-.7-17.9-.5 0-6 1.1-12.3 2.4-28.7 6.1-54.2 7.6-70 4.2-14.1-3-23.6-9.8-26-18.5-.7-2.8-1-19.8-.8-52.3.3-48 .3-48.3 2.6-52.5 2.6-4.9 7.5-8.5 14.7-10.9 6.7-2.2 35.8-3 49.7-1.4 8.6 1 28.1 4.3 39.1 6.6l2.7.6v-17.5c0-15.9-.2-17.6-1.7-18.1-3.1-.9-29.4-4.5-41.3-5.5-10.7-1-33-1.2-41-.4zM2376 478c-18.8 2.2-39.9 9.5-50.3 17.5-6.5 5-14.3 16.3-17 25-2.2 6.9-2.2 8-2.2 61.5v54.5l2.3 6.8c4 11.3 13.3 21.8 24.7 27.5 5.7 2.8 19.4 7 30.5 9.3 12.3 2.6 45.2 3.7 59.7 2 35.5-4.1 58.5-15.9 67.4-34.5 4.9-10.2 5-12.6 4.7-69.7l-.3-53.4-2.4-6c-8.3-20.9-23.8-31.7-55.4-38.6-7.3-1.6-13.9-2.1-31.7-2.4-12.4-.2-25.9 0-30 .5zm46.3 34.4c14.4 2.8 22.3 8 24.7 16.3.8 2.6 1 19.7.8 54.4l-.3 50.5-2.7 4.1c-5.4 8.3-17.8 11.6-43.3 11.5-28.4 0-40.1-3.7-45.6-14.4-1.8-3.5-1.9-6.5-1.9-54 0-46.6.2-50.6 1.9-54.3 1-2.3 3.2-5.3 4.9-6.7 3.7-3.1 12.3-6.5 19.5-7.7 8.7-1.4 33.8-1.2 42 .3zM1074.8 489.7l-.3 9.8-10 .8c-18.6 1.4-33.2 5.9-44.2 13.7-12.1 8.4-19.7 19.3-22.8 32.2-1.8 7.8-2.1 60.6-.4 69 4.2 19.9 21.4 35.8 45.4 41.8 4.4 1.1 13.5 2.6 20.3 3.2l12.2 1.1V680h45V661.3l11.4-1.2c31.6-3.2 53.2-16 63.3-37.6l2.8-6 .3-32.3c.2-20.7-.1-34.2-.8-37.6-3.1-15-15.5-30-31.1-37.4-11.6-5.5-27.5-9.1-40.6-9.2h-5.3v-20h-44.9l-.3 9.7zm-.3 90.3v47.5l-5.8-.3c-10-.4-19.3-5.6-22.7-12.6-1.9-4-2-6.1-2-33.7 0-33.2.3-34.4 7.5-40.8 5.4-4.7 14.9-8.2 21-7.8 2 .2 2 .9 2 47.7zm62.2-43.9c7.1 3.4 10.8 7.5 12.9 14.5 2.1 7 2 54-.1 61.1-2.6 8.6-11.9 15-23.6 16l-5.9.6v-96.4l5.3.6c2.8.4 8 2 11.4 3.6zM1236 580v100h51.8l45.4-70.9 45.3-71 .3 71 .2 70.9h46V480l-26.1.2-26.2.3-45.1 69.5-45.1 69.5-.3-69.8-.2-69.7h-46v100zM1468 580v100h48v-86h86v86h48V480h-48v80h-86v-80h-48v100zM1745.9 482.7c-.6 1.6-17 45.8-36.4 98.3s-35.6 96.3-36 97.2c-.7 1.7.8 1.8 22.8 1.8h23.5l8.9-26.3 8.8-26.2h73.8l2.3 7c1.3 3.8 5.4 15.7 9 26.2l6.6 19.3h23.9c13.2 0 23.9-.3 23.9-.8-.1-.4-16.2-45.2-35.8-99.7l-35.8-99-29.2-.3-29.2-.2-1.1 2.7zm42.3 75.3l12.6 38h-25.9c-19.9 0-25.9-.3-25.9-1.2 0-2.8 24.6-74.8 25.5-74.8.6 0 6.7 17.1 13.7 38zM1900 580v100h48v-86h86v86h48V480h-48v80h-86v-80h-48v100zM2536 580v100h49.5c52.3 0 62.7-.6 78-4.5 16.6-4.2 26.7-11.3 31.8-22.3 2-4.3 2.2-6.6 2.5-28.7.2-14.9 0-25.3-.7-27.5-2.3-7.9-13.6-17.3-24.4-20.5-3.1-.9-5.7-2-5.7-2.4 0-.4 1.6-1.3 3.5-2 5.6-2 12.8-8.3 15.8-14 2.6-4.7 2.9-6.5 3.4-16.9.7-15.5-.9-31.4-3.7-38-2.6-6-10.1-13.5-16.3-16.1-13.4-5.8-29.8-7.1-86.9-7.1H2536v100zm100.2-63.8c6.1 2.7 7.3 6.3 7.3 20.8-.1 18.7-2.2 21.9-16.2 24-3.7.6-15.1.9-25.3.8l-18.5-.3-.3-23.8-.2-23.9 24.7.4c20.4.3 25.5.6 28.5 2zm3.6 78.2c9.1 3.9 11.5 10 11 28.2-.4 14.2-1.3 16.3-9 20.2-5.7 2.9-22.6 4.4-43.8 4l-14.5-.3-.3-26c-.1-14.3 0-26.6.3-27.3.4-1.2 5-1.3 26.3-1 21.8.4 26.3.7 30 2.2zM2732 580v100h52.8c32.3 0 56.2-.4 61.7-1.1 27.3-3.4 45.1-13 52.1-28.2l2.9-6.2.3-27.4c.4-30.6-.2-34-6.4-42.8-4.4-6.2-9.4-9.4-20.6-13.1-12.4-4.1-25.5-5.2-64-5.2H2780v-76h-48v100zm105 11.1c7.9 1.2 12.7 3.5 15.4 7.2 1.9 2.6 2.1 4.3 2.1 18.1 0 14.9-.1 15.3-2.7 19.3-4.3 6.6-10.9 9.2-25.9 10.4-6.8.5-19.8.8-28.9.7l-16.5-.3-.3-28.3-.2-28.2h25.2c13.9 0 28.2.5 31.8 1.1zM2932 580v100h47V480h-47v100zM3023 580v100h156v-33l-53.7-.2-53.8-.3-.3-26.3-.2-26.2h95v-34h-95v-46h105v-34h-153v100zM1002 859.4V960h48v-65.8l28.3-.5c30.3-.5 39.7-1.6 54-6.3 18.1-6 26.6-17 28.8-37.4 1.2-11.2 1.1-41.4-.1-51.8-2.2-19.6-11.6-29.6-32.5-34.6-14.6-3.4-21.6-3.8-73.7-4.3l-52.8-.5v100.6zm96.3-65.3c8.3 1.3 11.7 2.8 14.6 6.5 2 2.5 2.1 3.9 2.1 24.8 0 24.7-.5 27.1-6.8 31.3-5.4 3.6-11.5 4.4-35.4 5l-22.8.5V793h20.6c11.3 0 23.8.5 27.7 1.1zM1196 859.5V960h156v-34h-108l.2-26.2.3-26.3 47.3-.3 47.2-.2v-33h-95v-47h105v-34h-153v100.5zM1385 859.5V960l138.8-.2 138.7-.3.3-100.3.2-100.2h-48v167h-67V759h-48v167h-67V759h-48v100.5zM1706.2 859.2l.3 100.3 77.8.3 77.7.2v-34h-108l.2-26.2.3-26.3 47.3-.3 47.2-.2v-33h-95v-47h105v-34h-153l.2 100.2zM1895 859.5V960h48l.2-43.3.3-43.2h85l.3 43.3.2 43.2 23.8-.2 23.7-.3.3-100.3.2-100.2h-48v81h-86v-81h-48v100.5zM2120.2 859.2l.3 100.3 25.6.3 25.6.2 45.4-71 45.4-71.1.5 70.8.5 70.8 22.8.3 22.7.2V759h-51.5l-45.5 70.2-45.5 70.1-.3-70.1-.2-70.2h-46l.2 100.2zM2407.5 760c-29.2 2.4-47 11.2-54.3 26.8-2.7 5.7-2.7 5.8-3 32.7-.3 25.6-.2 27.4 1.8 32.8 4.2 11.2 15.4 18.9 33.2 22.8 5.1 1.1 9.4 2.2 9.6 2.4.2.2-12.5 18.6-28.2 40.9-15.7 22.3-28.6 40.8-28.6 41.1 0 .3 12.3.4 27.3.3l27.2-.3 26.3-39.3L2445 881h23v79l23.8-.2 23.7-.3.3-100.3.2-100.2-49.7.1c-27.4.1-53.9.5-58.8.9zm60.5 61.1v28l-28.7-.3c-27.2-.3-29.1-.4-33.6-2.5-3.9-1.8-5.2-3.1-6.9-7-1.9-4.2-2.2-6.6-2.3-18.8 0-12.3.2-14.4 2-17.4 5.1-8.6 10.7-9.9 44.3-10l25.2-.1v28.1zM370 883.5V959h161V808H370v75.5z" fill="#fff"/></svg>